# xmcd
#
# Track frame offsets: 
#        150
#        25277
#        69655
#        98402
#        149577
#        184002
#
# Disc length: 2735 seconds
#
# Revision: 0
# Processed by: cddbd v1.5.1PL0 Copyright (c) Steve Scherf et al.
# Submitted via: ExactAudioCopy v0.95a5
#
DISCID=4e0aad06
DTITLE=Σταύρος Ξαρχάκος - Τσιτσάνη Διάλογοι
DYEAR=2004
DGENRE=Blues
TTITLE0=Ο νεαρός από τα Τρίκαλα στο Cotton club (Μια Κυριακή σε γνώρισ
TTITLE0=α ή Όταν σε πρωτογνώρισα, 1938 Σ. Παγιουμτζής - Σ. Περπινιάδης
TTITLE0=)
TTITLE1=Στις σκιές τριών φίλων (Μια βίλα εγώ να σου 'χτιζα, 1932 δισκ.
TTITLE1=1939 Σ. Παγιουμτζής - Β. Τσιτσάνης)
TTITLE2=Νυχτερινό παλιού πάθους (Ό,τι κι αν πω δε σε ξεχνώ, 1939 δισκ.
TTITLE2=1940 Σ. Περπινιάδης - Β. Τσιτσάνης)
TTITLE3=Η Μαγική ερώτων Μπάρα (Ζωίτσα μου μικρή, 1940 Σ. Παγιουμτζής -
TTITLE3=Β. Τσιτσάνης)
TTITLE4=Ο κ. Σατί στο ουζερί της Παύλου Μελά (Θα ρωτήσω τη μαμά σου, 1
TTITLE4=932 δισκ. 1938 Σ. Παγιουμτζής - Σ. Περπινιάδης)
TTITLE5=Όταν χόρευε η Φρίντα (Τρικαλινή τσαχπίνα, 1937 δισκ. 1938 Σ. Π
TTITLE5=ερπινιάδης - Π. Χρυσίνης)
EXTD=
EXTT0=
EXTT1=
EXTT2=
EXTT3=
EXTT4=
EXTT5=
PLAYORDER=
